<svg xmlns="http://www.w3.org/2000/svg" viewBox="0 0 600 200" width="600" height="200" role="img">
  <defs>
    <linearGradient id="fundo" x1="0" y1="0" x2="1" y2="1">
      <stop offset="0" stop-color="#0b1626"/>
      <stop offset="0.55" stop-color="#1b3a5c"/>
      <stop offset="1" stop-color="#0d2136"/>
    </linearGradient>
    <radialGradient id="brilho" cx="0.78" cy="0.5" r="0.6">
      <stop offset="0" stop-color="#4d8fd0" stop-opacity="0.35"/>
      <stop offset="1" stop-color="#4d8fd0" stop-opacity="0"/>
    </radialGradient>
  </defs>
  <rect width="600" height="200" fill="url(#fundo)"/>
  <g fill="#cfe2f5" opacity="0.55"><circle cx="168.7" cy="103.2" r="0.98"/><circle cx="254.1" cy="196.7" r="0.51"/><circle cx="526.6" cy="87.1" r="0.71"/><circle cx="434.2" cy="127.1" r="0.41"/><circle cx="31.2" cy="55.6" r="0.46"/><circle cx="477.2" cy="48.1" r="1.01"/><circle cx="67.0" cy="72.5" r="0.79"/><circle cx="530.6" cy="47.6" r="0.61"/><circle cx="248.2" cy="31.2" r="0.70"/><circle cx="22.4" cy="88.2" r="0.74"/><circle cx="216.4" cy="79.4" r="1.07"/><circle cx="265.7" cy="123.1" r="1.11"/><circle cx="192.3" cy="107.3" r="0.76"/><circle cx="568.3" cy="187.0" r="0.67"/><circle cx="129.5" cy="81.6" r="1.05"/><circle cx="510.1" cy="10.7" r="0.64"/><circle cx="206.9" cy="139.1" r="0.99"/><circle cx="538.0" cy="11.5" r="1.44"/><circle cx="536.1" cy="30.6" r="0.45"/><circle cx="255.6" cy="51.8" r="1.19"/><circle cx="67.9" cy="27.4" r="0.76"/><circle cx="272.9" cy="196.2" r="1.24"/><circle cx="249.3" cy="71.2" r="1.11"/><circle cx="579.3" cy="34.1" r="1.45"/><circle cx="310.4" cy="165.9" r="1.32"/><circle cx="332.2" cy="28.3" r="0.90"/><circle cx="453.6" cy="19.0" r="0.41"/><circle cx="167.8" cy="9.9" r="1.06"/><circle cx="395.6" cy="108.0" r="0.43"/><circle cx="264.3" cy="94.8" r="1.47"/><circle cx="580.2" cy="68.4" r="1.23"/><circle cx="136.6" cy="99.4" r="0.42"/><circle cx="305.7" cy="128.6" r="0.73"/><circle cx="141.3" cy="117.3" r="0.44"/><circle cx="582.3" cy="92.1" r="1.38"/><circle cx="142.9" cy="129.4" r="0.96"/><circle cx="439.1" cy="197.6" r="0.45"/><circle cx="568.9" cy="136.1" r="0.53"/><circle cx="92.3" cy="35.7" r="1.43"/><circle cx="356.2" cy="102.6" r="0.79"/><circle cx="247.9" cy="113.3" r="0.85"/><circle cx="396.0" cy="185.3" r="0.89"/><circle cx="405.3" cy="102.9" r="0.46"/><circle cx="30.5" cy="32.6" r="1.32"/><circle cx="77.4" cy="176.6" r="1.49"/><circle cx="456.4" cy="80.1" r="1.10"/><circle cx="22.1" cy="95.8" r="0.72"/><circle cx="82.9" cy="15.2" r="0.63"/><circle cx="86.9" cy="152.3" r="0.94"/><circle cx="548.4" cy="149.4" r="0.76"/><circle cx="475.5" cy="61.1" r="0.97"/><circle cx="407.4" cy="163.1" r="0.52"/><circle cx="234.5" cy="135.5" r="1.14"/><circle cx="8.3" cy="26.3" r="0.63"/><circle cx="537.7" cy="189.5" r="1.12"/><circle cx="215.7" cy="197.5" r="1.39"/><circle cx="261.9" cy="1.8" r="1.05"/><circle cx="28.9" cy="26.7" r="1.49"/><circle cx="387.3" cy="129.0" r="0.79"/><circle cx="230.9" cy="47.0" r="0.83"/><circle cx="458.9" cy="53.7" r="1.38"/><circle cx="487.1" cy="152.8" r="1.22"/><circle cx="80.4" cy="76.1" r="0.86"/><circle cx="537.1" cy="37.8" r="1.49"/><circle cx="126.3" cy="99.1" r="1.17"/><circle cx="59.9" cy="123.9" r="1.17"/><circle cx="307.5" cy="16.6" r="0.86"/><circle cx="105.1" cy="12.1" r="1.32"/><circle cx="187.7" cy="174.5" r="1.12"/><circle cx="39.6" cy="8.8" r="0.97"/></g>
  <rect width="600" height="200" fill="url(#brilho)"/>
  <g fill="none" stroke="#cfe2f5" stroke-width="3" stroke-linecap="round" opacity="0.9">
    <path d="M430 62 Q452 100 442 140"/>
    <path d="M462 56 Q484 100 474 144"/>
    <path d="M494 62 Q516 100 506 140"/>
  </g>
  <rect x="0" y="196" width="600" height="4" fill="#b8862b"/>
</svg>
