<svg xmlns="http://www.w3.org/2000/svg" viewBox="0 0 600 200" width="600" height="200" role="img">
  <defs>
    <linearGradient id="fundo" x1="0" y1="0" x2="1" y2="1">
      <stop offset="0" stop-color="#0b1626"/>
      <stop offset="0.55" stop-color="#1b3a5c"/>
      <stop offset="1" stop-color="#0d2136"/>
    </linearGradient>
    <radialGradient id="brilho" cx="0.78" cy="0.5" r="0.6">
      <stop offset="0" stop-color="#4d8fd0" stop-opacity="0.35"/>
      <stop offset="1" stop-color="#4d8fd0" stop-opacity="0"/>
    </radialGradient>
  </defs>
  <rect width="600" height="200" fill="url(#fundo)"/>
  <g fill="#cfe2f5" opacity="0.55"><circle cx="467.1" cy="19.7" r="1.24"/><circle cx="348.2" cy="77.7" r="0.55"/><circle cx="177.3" cy="86.2" r="0.47"/><circle cx="509.2" cy="151.7" r="1.36"/><circle cx="566.8" cy="193.7" r="1.32"/><circle cx="132.5" cy="22.8" r="1.44"/><circle cx="131.8" cy="166.9" r="1.35"/><circle cx="147.1" cy="61.5" r="1.46"/><circle cx="50.3" cy="43.1" r="0.52"/><circle cx="62.7" cy="78.9" r="1.24"/><circle cx="557.7" cy="152.2" r="0.45"/><circle cx="333.6" cy="187.1" r="1.25"/><circle cx="30.8" cy="106.7" r="0.58"/><circle cx="135.1" cy="172.2" r="0.98"/><circle cx="179.0" cy="184.6" r="1.06"/><circle cx="238.2" cy="125.0" r="0.71"/><circle cx="88.0" cy="4.5" r="0.88"/><circle cx="179.6" cy="185.2" r="0.69"/><circle cx="340.2" cy="43.1" r="0.92"/><circle cx="28.4" cy="194.6" r="1.12"/><circle cx="308.1" cy="87.4" r="0.75"/><circle cx="566.1" cy="171.9" r="0.85"/><circle cx="39.3" cy="167.2" r="0.48"/><circle cx="525.7" cy="54.4" r="1.28"/><circle cx="15.8" cy="29.1" r="0.66"/><circle cx="30.0" cy="105.1" r="0.77"/><circle cx="454.0" cy="40.4" r="0.78"/><circle cx="324.9" cy="40.6" r="0.66"/><circle cx="43.1" cy="168.7" r="1.18"/><circle cx="198.4" cy="189.1" r="1.07"/><circle cx="231.2" cy="185.4" r="0.90"/><circle cx="169.4" cy="10.6" r="1.20"/><circle cx="97.9" cy="140.2" r="0.59"/><circle cx="253.7" cy="183.1" r="1.26"/><circle cx="22.0" cy="74.3" r="0.82"/><circle cx="496.0" cy="27.2" r="1.05"/><circle cx="123.8" cy="96.6" r="0.86"/><circle cx="554.2" cy="180.6" r="0.98"/><circle cx="115.1" cy="134.9" r="1.36"/><circle cx="15.0" cy="28.8" r="0.77"/><circle cx="413.1" cy="42.6" r="1.42"/><circle cx="285.6" cy="182.6" r="0.49"/><circle cx="331.0" cy="163.9" r="0.61"/><circle cx="44.5" cy="111.5" r="0.98"/><circle cx="377.1" cy="154.6" r="1.14"/><circle cx="468.9" cy="95.5" r="1.26"/><circle cx="358.1" cy="59.6" r="1.17"/><circle cx="478.1" cy="191.8" r="0.88"/><circle cx="136.8" cy="65.7" r="0.90"/><circle cx="214.9" cy="97.8" r="1.15"/><circle cx="444.9" cy="56.7" r="1.18"/><circle cx="402.6" cy="118.2" r="1.49"/><circle cx="555.1" cy="12.8" r="0.78"/><circle cx="500.2" cy="2.1" r="0.85"/><circle cx="249.5" cy="100.1" r="1.46"/><circle cx="2.9" cy="133.3" r="0.65"/><circle cx="128.2" cy="121.2" r="0.63"/><circle cx="529.0" cy="186.7" r="1.28"/><circle cx="306.4" cy="87.8" r="1.21"/><circle cx="136.4" cy="31.3" r="0.92"/><circle cx="2.0" cy="198.1" r="0.79"/><circle cx="334.0" cy="69.6" r="0.56"/><circle cx="482.4" cy="176.2" r="1.11"/><circle cx="189.6" cy="109.5" r="0.98"/><circle cx="44.7" cy="186.8" r="0.70"/><circle cx="91.3" cy="178.6" r="0.90"/><circle cx="276.0" cy="137.1" r="0.79"/><circle cx="252.2" cy="141.3" r="0.40"/><circle cx="142.8" cy="29.5" r="0.67"/><circle cx="575.1" cy="88.8" r="1.26"/></g>
  <rect width="600" height="200" fill="url(#brilho)"/>
  <g fill="none" stroke="#cfe2f5" stroke-width="3" stroke-linecap="round" opacity="0.9">
    <rect x="428" y="60" width="84" height="80" rx="4"/>
    <path d="M444 84 H496 M444 100 H496 M444 116 H478"/>
  </g>
  <rect x="0" y="196" width="600" height="4" fill="#b8862b"/>
</svg>
